<mxfile host="app.diagrams.net" modified="2023-07-24T08:27:41.398Z" agent="Mozilla/5.0 (Windows NT 10.0; Win64; x64) AppleWebKit/537.36 (KHTML, like Gecko) Chrome/114.0.0.0 Safari/537.36 Edg/114.0.1823.82" etag="-9-gs_hCkUb0j2rs9gnw" version="21.6.2" type="github">
  <diagram id="C5RBs43oDa-KdzZeNtuy" name="Page-1">
    <mxGraphModel dx="620" dy="949" grid="1" gridSize="10" guides="1" tooltips="1" connect="1" arrows="1" fold="1" page="1" pageScale="1" pageWidth="827" pageHeight="1169" math="0" shadow="0">
      <root>
        <mxCell id="WIyWlLk6GJQsqaUBKTNV-0" />
        <mxCell id="WIyWlLk6GJQsqaUBKTNV-1" parent="WIyWlLk6GJQsqaUBKTNV-0" />
        <mxCell id="W7CaJ4aAefxqvgy1Zc_D-14" style="edgeStyle=orthogonalEdgeStyle;rounded=0;orthogonalLoop=1;jettySize=auto;html=1;entryX=0.5;entryY=0;entryDx=0;entryDy=0;" edge="1" parent="WIyWlLk6GJQsqaUBKTNV-1" source="WIyWlLk6GJQsqaUBKTNV-3" target="WIyWlLk6GJQsqaUBKTNV-6">
          <mxGeometry relative="1" as="geometry" />
        </mxCell>
        <mxCell id="WIyWlLk6GJQsqaUBKTNV-3" value="产生报警" style="rounded=1;whiteSpace=wrap;html=1;fontSize=12;glass=0;strokeWidth=1;shadow=0;" parent="WIyWlLk6GJQsqaUBKTNV-1" vertex="1">
          <mxGeometry x="160" y="80" width="120" height="40" as="geometry" />
        </mxCell>
        <mxCell id="W7CaJ4aAefxqvgy1Zc_D-3" style="edgeStyle=orthogonalEdgeStyle;rounded=0;orthogonalLoop=1;jettySize=auto;html=1;exitX=1;exitY=0.5;exitDx=0;exitDy=0;entryX=0;entryY=0.5;entryDx=0;entryDy=0;" edge="1" parent="WIyWlLk6GJQsqaUBKTNV-1" source="WIyWlLk6GJQsqaUBKTNV-6" target="W7CaJ4aAefxqvgy1Zc_D-0">
          <mxGeometry relative="1" as="geometry" />
        </mxCell>
        <mxCell id="W7CaJ4aAefxqvgy1Zc_D-4" value="是" style="edgeLabel;html=1;align=center;verticalAlign=middle;resizable=0;points=[];" vertex="1" connectable="0" parent="W7CaJ4aAefxqvgy1Zc_D-3">
          <mxGeometry x="-0.0694" y="-1" relative="1" as="geometry">
            <mxPoint as="offset" />
          </mxGeometry>
        </mxCell>
        <mxCell id="W7CaJ4aAefxqvgy1Zc_D-12" style="edgeStyle=orthogonalEdgeStyle;rounded=0;orthogonalLoop=1;jettySize=auto;html=1;exitX=0.5;exitY=1;exitDx=0;exitDy=0;entryX=0.5;entryY=0;entryDx=0;entryDy=0;" edge="1" parent="WIyWlLk6GJQsqaUBKTNV-1" source="WIyWlLk6GJQsqaUBKTNV-6" target="W7CaJ4aAefxqvgy1Zc_D-5">
          <mxGeometry relative="1" as="geometry" />
        </mxCell>
        <mxCell id="W7CaJ4aAefxqvgy1Zc_D-15" value="否" style="edgeLabel;html=1;align=center;verticalAlign=middle;resizable=0;points=[];" vertex="1" connectable="0" parent="W7CaJ4aAefxqvgy1Zc_D-12">
          <mxGeometry x="-0.3257" relative="1" as="geometry">
            <mxPoint as="offset" />
          </mxGeometry>
        </mxCell>
        <mxCell id="WIyWlLk6GJQsqaUBKTNV-6" value="是否首次报警" style="rhombus;whiteSpace=wrap;html=1;shadow=0;fontFamily=Helvetica;fontSize=12;align=center;strokeWidth=1;spacing=6;spacingTop=-4;" parent="WIyWlLk6GJQsqaUBKTNV-1" vertex="1">
          <mxGeometry x="170" y="170" width="100" height="80" as="geometry" />
        </mxCell>
        <mxCell id="W7CaJ4aAefxqvgy1Zc_D-0" value="创建状态为&amp;nbsp; 0：未生效&amp;nbsp; 的详情" style="rounded=1;whiteSpace=wrap;html=1;fontSize=12;glass=0;strokeWidth=1;shadow=0;" vertex="1" parent="WIyWlLk6GJQsqaUBKTNV-1">
          <mxGeometry x="340" y="190" width="120" height="40" as="geometry" />
        </mxCell>
        <mxCell id="W7CaJ4aAefxqvgy1Zc_D-8" value="" style="edgeStyle=orthogonalEdgeStyle;rounded=0;orthogonalLoop=1;jettySize=auto;html=1;" edge="1" parent="WIyWlLk6GJQsqaUBKTNV-1" source="W7CaJ4aAefxqvgy1Zc_D-5" target="W7CaJ4aAefxqvgy1Zc_D-7">
          <mxGeometry relative="1" as="geometry" />
        </mxCell>
        <mxCell id="W7CaJ4aAefxqvgy1Zc_D-9" value="大于当前报警" style="edgeLabel;html=1;align=center;verticalAlign=middle;resizable=0;points=[];" vertex="1" connectable="0" parent="W7CaJ4aAefxqvgy1Zc_D-8">
          <mxGeometry x="-0.1837" y="1" relative="1" as="geometry">
            <mxPoint as="offset" />
          </mxGeometry>
        </mxCell>
        <mxCell id="W7CaJ4aAefxqvgy1Zc_D-11" value="" style="edgeStyle=orthogonalEdgeStyle;rounded=0;orthogonalLoop=1;jettySize=auto;html=1;entryX=0.5;entryY=0;entryDx=0;entryDy=0;" edge="1" parent="WIyWlLk6GJQsqaUBKTNV-1" source="W7CaJ4aAefxqvgy1Zc_D-5" target="W7CaJ4aAefxqvgy1Zc_D-18">
          <mxGeometry relative="1" as="geometry">
            <mxPoint x="220" y="450" as="targetPoint" />
          </mxGeometry>
        </mxCell>
        <mxCell id="W7CaJ4aAefxqvgy1Zc_D-16" value="小于等于当前报警" style="edgeLabel;html=1;align=center;verticalAlign=middle;resizable=0;points=[];" vertex="1" connectable="0" parent="W7CaJ4aAefxqvgy1Zc_D-11">
          <mxGeometry x="-0.454" relative="1" as="geometry">
            <mxPoint as="offset" />
          </mxGeometry>
        </mxCell>
        <mxCell id="W7CaJ4aAefxqvgy1Zc_D-5" value="历史报警详情&lt;br&gt;等级" style="rhombus;whiteSpace=wrap;html=1;shadow=0;fontFamily=Helvetica;fontSize=12;align=center;strokeWidth=1;spacing=6;spacingTop=-4;" vertex="1" parent="WIyWlLk6GJQsqaUBKTNV-1">
          <mxGeometry x="170" y="300" width="100" height="80" as="geometry" />
        </mxCell>
        <mxCell id="W7CaJ4aAefxqvgy1Zc_D-7" value="修改状态：&lt;br style=&quot;border-color: var(--border-color);&quot;&gt;如之前是&amp;nbsp; 1：生效&amp;nbsp; 状态则改为&amp;nbsp; 2：已关闭&amp;nbsp; 状态&lt;br style=&quot;border-color: var(--border-color);&quot;&gt;如果之前是&amp;nbsp; 0：未生效&amp;nbsp; 状态则改为&amp;nbsp; -1：失效&amp;nbsp; 状态" style="rounded=1;whiteSpace=wrap;html=1;shadow=0;strokeWidth=1;spacing=6;spacingTop=-4;" vertex="1" parent="WIyWlLk6GJQsqaUBKTNV-1">
          <mxGeometry x="414" y="310" width="306" height="60" as="geometry" />
        </mxCell>
        <mxCell id="W7CaJ4aAefxqvgy1Zc_D-20" value="" style="edgeStyle=orthogonalEdgeStyle;rounded=0;orthogonalLoop=1;jettySize=auto;html=1;" edge="1" parent="WIyWlLk6GJQsqaUBKTNV-1" source="W7CaJ4aAefxqvgy1Zc_D-18" target="W7CaJ4aAefxqvgy1Zc_D-19">
          <mxGeometry relative="1" as="geometry" />
        </mxCell>
        <mxCell id="W7CaJ4aAefxqvgy1Zc_D-21" value="是" style="edgeLabel;html=1;align=center;verticalAlign=middle;resizable=0;points=[];" vertex="1" connectable="0" parent="W7CaJ4aAefxqvgy1Zc_D-20">
          <mxGeometry x="0.0122" y="1" relative="1" as="geometry">
            <mxPoint as="offset" />
          </mxGeometry>
        </mxCell>
        <mxCell id="W7CaJ4aAefxqvgy1Zc_D-23" value="" style="edgeStyle=orthogonalEdgeStyle;rounded=0;orthogonalLoop=1;jettySize=auto;html=1;" edge="1" parent="WIyWlLk6GJQsqaUBKTNV-1" source="W7CaJ4aAefxqvgy1Zc_D-18" target="W7CaJ4aAefxqvgy1Zc_D-22">
          <mxGeometry relative="1" as="geometry" />
        </mxCell>
        <mxCell id="W7CaJ4aAefxqvgy1Zc_D-24" value="否" style="edgeLabel;html=1;align=center;verticalAlign=middle;resizable=0;points=[];" vertex="1" connectable="0" parent="W7CaJ4aAefxqvgy1Zc_D-23">
          <mxGeometry x="-0.0838" y="-1" relative="1" as="geometry">
            <mxPoint as="offset" />
          </mxGeometry>
        </mxCell>
        <mxCell id="W7CaJ4aAefxqvgy1Zc_D-18" value="是否超过报警生效时间" style="rhombus;whiteSpace=wrap;html=1;shadow=0;fontFamily=Helvetica;fontSize=12;align=center;strokeWidth=1;spacing=6;spacingTop=-4;" vertex="1" parent="WIyWlLk6GJQsqaUBKTNV-1">
          <mxGeometry x="170" y="430" width="100" height="80" as="geometry" />
        </mxCell>
        <mxCell id="W7CaJ4aAefxqvgy1Zc_D-19" value="修改状态：&lt;br&gt;如之前是&amp;nbsp; 1：生效&amp;nbsp; 状态则改为&amp;nbsp; 2：已关闭&amp;nbsp; 状态&lt;br&gt;如果之前是&amp;nbsp; 0：未生效&amp;nbsp; 状态则改为&amp;nbsp; -1：失效&amp;nbsp; 状态" style="rounded=1;whiteSpace=wrap;html=1;shadow=0;strokeWidth=1;spacing=6;spacingTop=-4;" vertex="1" parent="WIyWlLk6GJQsqaUBKTNV-1">
          <mxGeometry x="341" y="440" width="320" height="60" as="geometry" />
        </mxCell>
        <mxCell id="W7CaJ4aAefxqvgy1Zc_D-22" value="更新报警详情，最大值、最后时间、持续时间&lt;br&gt;如果报警等级小于当前报警，则将最大值更新为上级报警门限（如果等级为2级则将其最大值设置为3级报警门限）" style="rounded=1;whiteSpace=wrap;html=1;shadow=0;strokeWidth=1;spacing=6;spacingTop=-4;" vertex="1" parent="WIyWlLk6GJQsqaUBKTNV-1">
          <mxGeometry x="85" y="570" width="270" height="60" as="geometry" />
        </mxCell>
      </root>
    </mxGraphModel>
  </diagram>
</mxfile>
